<svg width="400" height="400" viewBox="0 0 400 400" fill="none" xmlns="http://www.w3.org/2000/svg">
<rect width="400" height="400" rx="200" fill="white"/>
<path d="M231.139 269.994C236.022 269.957 240.919 269.649 245.781 269.986C248.686 270.187 251.519 271.493 254.413 272.141C261.112 273.64 267.806 274.015 274.459 271.731C289.697 266.501 293.517 247.048 286.273 234.897C283.564 230.353 279.682 227.175 275.227 225.175C268.28 222.057 261.23 219.22 254.175 216.419C246.046 213.193 237.797 210.341 229.724 206.953C219.347 202.597 210.506 195.703 203.923 185.497C196.526 174.029 193.583 161.254 195.036 147.148C196.139 136.433 199.402 126.696 205.078 118.015C210.993 108.971 218.578 102.188 227.605 97.4852C240.016 91.0201 253.139 88.9739 266.689 89.8648C276.857 90.5333 286.741 92.7444 296.064 97.4699C305.716 102.362 313.657 109.654 319.58 119.614C319.771 119.937 319.954 120.267 320.129 120.601C320.202 120.74 320.243 120.899 320.343 121.168C311.974 130.774 303.59 140.399 295.306 149.908C293.495 147.489 291.939 144.958 289.997 142.886C277.779 129.854 263.526 125.343 247.233 130.779C239.643 133.311 234.446 139.113 232.282 147.766C230.348 155.504 233.147 161.678 238.575 166.254C241.133 168.41 244.14 170.1 247.161 171.313C260.519 176.68 273.983 181.708 287.353 187.039C295.185 190.162 302.676 194.089 309.093 200.242C316.759 207.592 321.535 216.877 323.958 227.8C327.485 243.699 326.684 259.301 320.512 274.16C312.697 292.974 299.69 304.92 281.493 309.247C278.622 309.929 275.618 310.131 272.673 310.155C258.957 310.264 245.24 310.233 231.347 310.069C231.16 296.588 231.149 283.291 231.139 269.994Z" fill="#7BC1CD"/>
<path d="M201.392 284.795C201.276 284.982 201.159 285.17 200.854 285.384C200.365 285.897 200.065 286.385 199.765 286.872C199.765 286.872 199.646 286.885 199.603 286.866C199.476 287.038 199.393 287.229 199.31 287.42C199.189 287.616 199.069 287.813 198.789 288.077C198.571 288.257 198.512 288.37 198.453 288.482C198.453 288.482 198.452 288.43 198.377 288.423C198.137 288.513 197.972 288.611 197.721 288.76C197.487 288.959 197.328 289.092 197.197 289.256C193.737 293.597 190.253 297.916 186.841 302.305C186.038 303.338 185.481 304.612 184.811 305.775C184.819 305.884 184.784 305.972 184.532 306.056C183.96 306.67 183.563 307.265 183.165 307.859C183.165 307.859 183.174 307.771 183.073 307.81C182.943 307.967 182.912 308.085 182.882 308.203C182.832 308.196 182.782 308.189 182.708 308.186C182.6 308.376 182.518 308.563 182.435 308.75C182.44 308.864 182.402 308.955 182.125 309.041C180.279 309.057 178.627 309.015 176.976 309.062C174.251 309.138 171.525 309.373 168.801 309.356C164.003 309.327 159.206 309.1 154.407 309.072C151.634 309.057 148.859 309.366 146.085 309.357C142.471 309.344 138.859 309.116 135.245 309.062C131.57 309.007 127.894 309.007 124.22 309.06C119.988 309.122 115.758 309.338 111.527 309.356C108.597 309.368 105.667 309.066 102.737 309.073C99.1965 309.082 95.6571 309.292 92.1166 309.371C90.0536 309.417 90.0509 309.378 90.0509 307.051C90.0507 235.672 90.0508 164.293 90.0512 92.9141C90.0512 90.7158 90.0528 90.714 91.9336 90.714C131.158 90.7143 170.383 90.7151 209.608 90.7159C209.953 90.7159 210.299 90.7352 210.644 90.715C211.483 90.6659 211.347 91.213 211.177 91.7894C211.177 91.7894 211.17 91.7463 211.109 91.7752C210.992 91.9063 210.935 92.0086 210.878 92.1108C210.878 92.1108 210.873 92.0733 210.811 92.1041C210.692 92.2363 210.636 92.3378 210.579 92.4393C210.579 92.4393 210.575 92.4084 210.476 92.4021C210.153 92.6355 209.929 92.8752 209.705 93.1149C209.705 93.1149 209.696 93.0805 209.633 93.1083C209.51 93.2367 209.452 93.3373 209.394 93.4379C209.394 93.4379 209.39 93.4071 209.291 93.4016C208.969 93.6375 208.747 93.8788 208.524 94.1202C208.524 94.1202 208.515 94.0832 208.451 94.1117C208.331 94.2435 208.274 94.3469 208.218 94.4502C208.218 94.4502 208.211 94.4107 208.15 94.4406C208.031 94.5726 207.974 94.6747 207.917 94.7768C207.917 94.7768 207.912 94.7399 207.85 94.7703C207.731 94.9012 207.673 95.0016 207.615 95.1021C207.615 95.1021 207.611 95.0714 207.526 95.0734C207.306 95.2054 207.17 95.3354 207.035 95.4655C207.035 95.4655 207.027 95.4179 206.968 95.4457C206.851 95.5758 206.793 95.6781 206.735 95.7803C206.735 95.7803 206.729 95.7418 206.668 95.7723C206.548 95.9036 206.491 96.0045 206.433 96.1054C206.433 96.1054 206.43 96.0753 206.336 96.0767C205.423 96.9796 204.605 97.881 203.787 98.7825C203.787 98.7825 203.768 98.7421 203.674 98.7379C201.762 100.695 199.943 102.654 198.139 104.63C198.072 104.704 198.15 104.946 198.161 105.11C198.161 105.11 198.139 105.072 198.049 105.076C197.088 105.574 196.276 106.119 196.381 107.44C196.381 107.44 196.363 107.405 196.272 107.409C194.736 108.763 193.531 110.296 193.132 112.448C193.132 112.448 193.114 112.414 193.019 112.422C192.844 112.686 192.764 112.942 192.685 113.197C192.685 113.197 192.653 113.207 192.55 113.197C192.244 113.405 191.969 113.583 191.849 113.849C189.871 118.226 187.851 122.582 185.986 127.02C185.406 128.398 184.916 129.168 183.369 129.103C179.433 128.938 175.488 129.046 171.547 129.046C156.374 129.046 141.2 129.038 126.027 129.079C125.465 129.081 124.904 129.565 124.257 129.907C124.146 130.652 124.097 131.314 124.097 131.976C124.095 159 124.098 186.024 124.099 213.201C124.098 214.585 124.099 215.816 124.099 217.203C124.098 234.19 124.094 251.021 124.111 267.852C124.112 268.476 124.319 269.1 124.429 269.723C124.508 269.746 124.572 269.792 124.725 270.035C125.36 270.265 125.892 270.374 126.424 270.374C137.905 270.384 149.386 270.383 160.866 270.383C177.472 270.384 194.077 270.376 210.682 270.416C211.254 270.417 211.826 270.886 212.397 271.137C212.397 271.137 212.376 271.095 212.287 271.091C211.092 271.952 209.76 272.609 209.727 274.468C209.727 274.468 209.711 274.425 209.646 274.452C209.525 274.59 209.469 274.702 209.414 274.813C209.414 274.813 209.405 274.754 209.345 274.784C209.231 274.926 209.177 275.039 209.122 275.152C209.122 275.152 209.118 275.103 209.029 275.094C208.502 275.649 208.064 276.212 207.625 276.775C207.625 276.775 207.619 276.743 207.523 276.749C207.292 277.089 207.157 277.423 207.022 277.758C207.022 277.758 207.014 277.73 206.922 277.74C206.695 277.983 206.559 278.216 206.424 278.449C206.436 278.558 206.402 278.644 206.147 278.722C205.585 279.338 205.198 279.939 204.811 280.54C204.811 280.54 204.794 280.509 204.693 280.512C204.562 280.637 204.533 280.759 204.503 280.882C204.503 280.882 204.43 280.767 204.365 280.809C204.273 280.972 204.246 281.093 204.219 281.214C204.219 281.214 204.101 281.201 204.054 281.198C203.925 281.392 203.842 281.589 203.759 281.787C203.644 281.976 203.529 282.165 203.228 282.381C202.112 282.871 201.333 283.466 201.392 284.795Z" fill="#123668"/>
<path d="M211.873 212.235C217.798 216.732 223.968 220.469 230.428 223.67C197.033 223.67 163.639 223.67 130.134 223.67C130.105 223.029 130.059 222.489 130.059 221.949C130.058 206.568 130.083 191.188 130.031 175.807C130.026 174.136 130.408 173.657 131.925 173.663C148.891 173.727 165.857 173.724 182.823 173.674C184.183 173.67 184.802 174.069 185.165 175.617C187.107 183.916 191.239 190.787 196.247 197.133C200.836 202.947 206.159 207.742 211.873 212.235Z" fill="#123668"/>
<path d="M231.345 269.983C231.496 283.28 231.547 296.575 231.636 310.032C229.905 310.242 228.137 310.323 226.369 310.332C217.943 310.374 209.516 310.401 201.09 310.416C200.316 310.417 199.541 310.295 198.476 310.206C200.552 307.582 202.426 305.178 204.333 302.808C212.467 292.697 220.604 282.589 228.762 272.503C229.509 271.579 230.414 270.817 231.345 269.983Z" fill="#7BC1CD"/>
<path d="M211.284 91.7748C211.348 91.2132 211.484 90.666 210.645 90.7152C210.301 90.7353 209.954 90.716 209.609 90.716C170.384 90.7152 131.16 90.7145 91.9348 90.7142C90.0539 90.7141 90.0524 90.716 90.0524 92.9143C90.052 164.293 90.0518 235.672 90.0521 307.051C90.0521 309.378 90.0548 309.417 92.1178 309.371C95.6583 309.292 99.1977 309.082 102.738 309.073C105.668 309.066 108.599 309.368 111.528 309.356C115.759 309.338 119.99 309.122 124.221 309.061C127.895 309.007 131.571 309.007 135.246 309.062C138.86 309.117 142.472 309.344 146.086 309.357C148.86 309.366 151.635 309.057 154.409 309.072C159.207 309.1 164.004 309.328 168.802 309.357C171.527 309.373 174.252 309.138 176.978 309.062C178.628 309.016 180.28 309.058 182.06 309.064C181.585 309.283 180.982 309.683 180.378 309.684C154.818 309.723 129.258 309.727 103.698 309.734C99.0641 309.736 94.43 309.734 89.7109 309.734C89.7109 236.498 89.7109 163.362 89.7109 90.1885C130.868 90.1885 171.938 90.1885 213.009 90.1885C213.052 90.2969 213.094 90.4054 213.137 90.5138C212.554 90.9292 211.972 91.3446 211.284 91.7748Z" fill="#123668"/>
<path d="M124.344 129.823C124.905 129.564 125.466 129.081 126.028 129.079C141.201 129.038 156.374 129.046 171.548 129.046C175.489 129.046 179.434 128.938 183.369 129.103C184.917 129.168 185.407 128.398 185.986 127.02C187.852 122.582 189.871 118.226 191.849 113.849C191.97 113.583 192.245 113.405 192.553 113.215C190.415 118.411 188.194 123.591 185.89 128.723C185.683 129.183 184.936 129.591 184.438 129.593C170.582 129.645 156.725 129.64 142.868 129.646C137.247 129.648 131.625 129.651 126.004 129.668C125.523 129.67 125.042 129.788 124.469 129.906C124.377 129.959 124.344 129.823 124.344 129.823Z" fill="#123668"/>
<path d="M212.494 271.075C211.827 270.885 211.256 270.417 210.684 270.415C194.079 270.376 177.473 270.383 160.868 270.382C149.387 270.382 137.907 270.384 126.426 270.374C125.894 270.373 125.362 270.264 124.75 270.094C142.379 269.971 160.088 269.954 177.797 269.95C189.044 269.947 200.292 269.961 211.539 269.967C212.064 269.967 212.59 269.967 213.406 269.967C213.004 270.481 212.796 270.747 212.494 271.075Z" fill="#123668"/>
<path d="M124.259 129.906C124.345 129.823 124.378 129.959 124.397 130.026C124.436 138.478 124.471 146.864 124.472 155.249C124.474 174.413 124.46 193.576 124.351 212.893C124.249 213.047 124.101 213.047 124.101 213.047C124.099 186.023 124.097 158.999 124.098 131.976C124.098 131.313 124.147 130.651 124.259 129.906Z" fill="#123668"/>
<path d="M124.443 269.567C124.321 269.099 124.114 268.475 124.114 267.851C124.097 251.02 124.101 234.19 124.175 217.202C124.248 217.046 124.394 217.047 124.394 217.047C124.416 224.027 124.45 231.008 124.456 237.988C124.466 248.462 124.456 258.936 124.443 269.567Z" fill="#123668"/>
<path d="M184.902 305.722C185.483 304.611 186.041 303.337 186.843 302.305C190.255 297.915 193.739 293.597 197.2 289.255C197.33 289.092 197.49 288.958 197.739 288.894C197.85 289.066 197.859 289.156 197.867 289.246C193.575 294.72 189.284 300.195 184.902 305.722Z" fill="#123668"/>
<path d="M198.253 105.06C198.153 104.946 198.075 104.704 198.142 104.63C199.947 102.654 201.766 100.695 203.694 98.75C201.984 100.848 200.163 102.929 198.253 105.06Z" fill="#123668"/>
<path d="M193.219 112.388C193.534 110.296 194.739 108.762 196.291 107.417C195.367 109.057 194.335 110.692 193.219 112.388Z" fill="#123668"/>
<path d="M209.818 274.421C209.761 272.608 211.093 271.952 212.308 271.102C211.58 272.202 210.744 273.287 209.818 274.421Z" fill="#123668"/>
<path d="M124.428 216.922C124.394 217.047 124.248 217.046 124.175 217.046C124.101 215.816 124.101 214.585 124.102 213.201C124.103 213.047 124.25 213.047 124.323 213.047C124.419 214.296 124.441 215.546 124.428 216.922Z" fill="#123668"/>
<path d="M203.883 98.7441C204.607 97.8803 205.425 96.9789 206.35 96.0801C205.631 96.9573 204.804 97.8318 203.883 98.7441Z" fill="#123668"/>
<path d="M201.483 284.739C201.335 283.466 202.114 282.87 203.156 282.41C202.702 283.17 202.136 283.926 201.483 284.739Z" fill="#123668"/>
<path d="M196.47 107.388C196.278 106.119 197.09 105.574 198.069 105.086C197.637 105.84 197.097 106.588 196.47 107.388Z" fill="#123668"/>
<path d="M204.891 280.481C205.2 279.939 205.588 279.337 206.085 278.737C205.786 279.3 205.377 279.861 204.891 280.481Z" fill="#123668"/>
<path d="M183.25 307.804C183.566 307.264 183.964 306.67 184.471 306.076C184.164 306.634 183.748 307.191 183.25 307.804Z" fill="#123668"/>
<path d="M207.723 276.747C208.065 276.212 208.504 275.649 209.051 275.104C208.713 275.654 208.266 276.186 207.723 276.747Z" fill="#123668"/>
<path d="M199.844 286.812C200.066 286.384 200.367 285.897 200.781 285.411C200.571 285.859 200.246 286.306 199.844 286.812Z" fill="#123668"/>
<path d="M209.805 93.1023C209.929 92.8748 210.153 92.6351 210.489 92.4072C210.369 92.6427 210.136 92.8665 209.805 93.1023Z" fill="#123668"/>
<path d="M208.625 94.1087C208.749 93.8787 208.971 93.6373 209.305 93.4072C209.186 93.6448 208.955 93.8711 208.625 94.1087Z" fill="#123668"/>
<path d="M207.109 277.71C207.159 277.424 207.295 277.089 207.54 276.752C207.498 277.054 207.346 277.358 207.109 277.71Z" fill="#123668"/>
<path d="M192.75 113.138C192.764 112.942 192.844 112.686 193.035 112.429C193.036 112.644 192.926 112.861 192.75 113.138Z" fill="#123668"/>
<path d="M197.95 289.192C197.857 289.156 197.848 289.066 197.824 288.842C197.973 288.61 198.137 288.513 198.399 288.433C198.343 288.679 198.189 288.908 197.95 289.192Z" fill="#123668"/>
<path d="M206.508 278.407C206.56 278.216 206.696 277.983 206.936 277.743C206.891 277.946 206.741 278.155 206.508 278.407Z" fill="#123668"/>
<path d="M207.133 95.4545C207.171 95.3352 207.307 95.2052 207.54 95.0791C207.501 95.2033 207.366 95.3236 207.133 95.4545Z" fill="#123668"/>
<path d="M203.84 281.742C203.846 281.589 203.929 281.392 204.116 281.213C204.119 281.387 204.018 281.543 203.84 281.742Z" fill="#123668"/>
<path d="M199.391 287.378C199.395 287.229 199.479 287.038 199.664 286.854C199.667 287.019 199.568 287.177 199.391 287.378Z" fill="#123668"/>
<path d="M182.516 308.712C182.521 308.563 182.603 308.376 182.786 308.2C182.788 308.365 182.691 308.519 182.516 308.712Z" fill="#123668"/>
<path d="M210.957 92.0801C210.937 92.0084 210.994 91.9062 211.131 91.7773C211.152 91.8504 211.093 91.95 210.957 92.0801Z" fill="#123668"/>
<path d="M207.695 95.0732C207.676 95.0019 207.733 94.9014 207.869 94.7734C207.889 94.8453 207.831 94.9447 207.695 95.0732Z" fill="#123668"/>
<path d="M204.568 280.846C204.533 280.759 204.563 280.637 204.689 280.529C204.765 280.655 204.714 280.744 204.568 280.846Z" fill="#123668"/>
<path d="M210.656 92.4084C210.636 92.3373 210.693 92.2358 210.828 92.1064C210.849 92.1784 210.791 92.2783 210.656 92.4084Z" fill="#123668"/>
<path d="M204.283 281.18C204.249 281.093 204.276 280.972 204.398 280.871C204.472 280.997 204.423 281.082 204.283 281.18Z" fill="#123668"/>
<path d="M209.494 274.779C209.47 274.701 209.525 274.59 209.667 274.453C209.693 274.534 209.633 274.639 209.494 274.779Z" fill="#123668"/>
<path d="M198.536 288.443C198.513 288.37 198.572 288.257 198.713 288.106C198.737 288.181 198.677 288.292 198.536 288.443Z" fill="#123668"/>
<path d="M182.946 308.165C182.913 308.085 182.943 307.967 183.064 307.853C183.138 307.968 183.089 308.058 182.946 308.165Z" fill="#123668"/>
<path d="M206.511 96.0754C206.492 96.0046 206.55 95.9037 206.686 95.7754C206.706 95.847 206.647 95.9462 206.511 96.0754Z" fill="#123668"/>
<path d="M206.816 95.7499C206.796 95.6776 206.854 95.5753 206.993 95.4482C207.014 95.5223 206.954 95.6211 206.816 95.7499Z" fill="#123668"/>
<path d="M209.472 93.409C209.453 93.3367 209.511 93.2361 209.649 93.1104C209.669 93.1837 209.61 93.2822 209.472 93.409Z" fill="#123668"/>
<path d="M209.205 275.117C209.18 275.039 209.234 274.926 209.375 274.787C209.402 274.868 209.344 274.975 209.205 275.117Z" fill="#123668"/>
<path d="M208.297 94.4194C208.276 94.3463 208.333 94.243 208.47 94.1143C208.492 94.189 208.433 94.2891 208.297 94.4194Z" fill="#123668"/>
<path d="M207.996 94.7457C207.976 94.6742 208.033 94.5721 208.169 94.4434C208.19 94.5162 208.132 94.6156 207.996 94.7457Z" fill="#123668"/>
</svg>
